#!OML:ASF H:\Dans Jumps\Project 1\Capture day 1\Session 1\subject.ASF
:FULLY-SPECIFIED
:DEGREES
424
root 0.255829 20.0241 -11.3276 11.8562 0.802854 -0.378029
lowerback 7.83302 -0.0380943 -2.46614
upperback 4.2695 -0.199039 1.72669
thorax 0.0393695 -0.157333 3.1836
lowerneck -12.8643 0.344975 -1.4427
upperneck 27.0876 0.552508 1.032
head 10.8303 0.227718 0.690748
rclavicle -1.09332e-015 -2.18663e-014
rhumerus -26.9559 9.83651 -85.4635
rradius 108.84
rwrist 7.7191
rhand -28.3154 -23.1977
rfingers 7.12502
rthumb -1.69057 -53.1707
lclavicle -1.09332e-015 -2.18663e-014
lhumerus -34.4416 -19.4081 90.6798
lradius 116.891
lwrist 39.4301
lhand -28.536 -15.1074
lfingers 7.12502
lthumb -1.90358 14.8639
rfemur -25.8518 -6.39897 19.2652
rtibia 38.4962
rfoot 17.7369 -11.9997
rtoes 19.3923
lfemur -28.6181 5.69853 -16.9019
ltibia 40.518
lfoot 23.6152 0.0936037
ltoes 3.96646
425
root 0.252924 20.2463 -11.248 12.1767 1.06354 -0.413499
lowerback 7.56312 -0.153787 -2.49796
upperback 4.22259 -0.34889 1.7552
thorax 0.151359 -0.234095 3.24041
lowerneck -12.9608 0.330775 -1.47613
upperneck 27.1487 0.509052 1.14674
head 10.8723 0.217827 0.733079
rclavicle 3.67752e-015 -6.36111e-015
rhumerus -27.863 9.78194 -85.7088
rradius 109.198
rwrist 7.84615
rhand -28.4003 -23.1935
rfingers 7.12502
rthumb -1.77249 -53.1659
lclavicle 3.67752e-015 -6.36111e-015
lhumerus -35.8859 -19.2141 91.4482
lradius 117.399
lwrist 39.8465
lhand -28.7634 -15.2308
lfingers 7.12502
lthumb -2.12322 14.7384
rfemur -26.6762 -6.57513 19.5245
rtibia 38.8857
rfoot 17.6548 -11.8975
rtoes 19.6639
lfemur -29.5433 5.52627 -16.9091
ltibia 40.7842
lfoot 23.4124 0.031626
ltoes 3.61256
426
root 0.24927 20.457 -11.1777 12.3961 1.31115 -0.429028
lowerback 7.48705 -0.25668 -2.54831
upperback 4.21098 -0.486561 1.77719
thorax 0.192586 -0.30437 3.30084
lowerneck -13.0794 0.310041 -1.51424
upperneck 27.1647 0.46524 1.23597
head 10.9022 0.204576 0.766769
rclavicle -8.94531e-016 3.18055e-015
rhumerus -28.6813 9.70513 -85.9479
rradius 109.422
rwrist 7.97149
rhand -28.4935 -23.2133
rfingers 7.12502
rthumb -1.86254 -53.185
lclavicle -8.94531e-016 3.18055e-015
lhumerus -37.2097 -19.046 92.1851
lradius 117.774
lwrist 40.4001
lhand -28.9574 -15.3585
lfingers 7.12502
lthumb -2.31053 14.6087
rfemur -27.5873 -6.70623 19.7564
rtibia 39.6438
rfoot 17.5764 -11.6611
rtoes 19.7688
lfemur -30.5058 5.40627 -16.9579
ltibia 41.3136
lfoot 23.3479 -0.0386209
ltoes 3.57056
427
root 0.245252 20.6569 -11.1154 12.4825 1.52635 -0.432976
lowerback 7.62036 -0.336361 -2.6085
upperback 4.24501 -0.598109 1.79275
thorax 0.163928 -0.361157 3.36027
lowerneck -13.2314 0.282506 -1.54975
upperneck 27.1546 0.420453 1.29526
head 10.929 0.187835 0.789031
rclavicle 1.07344e-014 1.78906e-015
rhumerus -29.4076 9.60424 -86.1718
rradius 109.517
rwrist 8.10938
rhand -28.5904 -23.2611
rfingers 7.12502
rthumb -1.95611 -53.2318
lclavicle 1.07344e-014 1.78906e-015
lhumerus -38.4098 -18.9159 92.8922
lradius 118.016
lwrist 40.99
lhand -29.0681 -15.4507
lfingers 7.12502
lthumb -2.41749 14.5153
rfemur -28.5073 -6.77795 19.9573
rtibia 40.6827
rfoot 17.5561 -11.3858
rtoes 20.0033
lfemur -31.4287 5.33511 -17.0368
ltibia 42.0404
lfoot 23.4132 -0.0744951
ltoes 3.81614
428
root 0.241066 20.8456 -11.0603 12.4246 1.70274 -0.428228
lowerback 7.9656 -0.3903 -2.67521
upperback 4.32389 -0.680331 1.80092
thorax 0.062943 -0.402681 3.41648
lowerneck -13.4091 0.248869 -1.58383
upperneck 27.126 0.375001 1.32784
head 10.9543 0.167959 0.801254
rclavicle -3.97569e-015 4.96962e-015
rhumerus -30.0417 9.48706 -86.3848
rradius 109.481
rwrist 8.26875
rhand -28.6948 -23.3343
rfingers 7.12502
rthumb -2.05692 -53.3041
lclavicle -3.97569e-015 4.96962e-015
lhumerus -39.4945 -18.827 93.5684
lradius 118.127
lwrist 41.5323
lhand -29.0721 -15.4727
lfingers 7.12502
lthumb -2.42136 14.4933
rfemur -29.3781 -6.79247 20.1258
rtibia 41.909
rfoot 17.559 -11.0914
rtoes 20.3299
lfemur -32.2664 5.30579 -17.1399
ltibia 42.9042
lfoot 23.4542 -0.0647294
ltoes 4.13522
429
root 0.236992 21.0231 -11.0101 12.2228 1.83448 -0.418348
lowerback 8.49917 -0.418283 -2.74856
upperback 4.4475 -0.732923 1.8039
thorax -0.09706 -0.428996 3.47187
lowerneck -13.5903 0.206679 -1.62962
upperneck 27.0711 0.324243 1.34859
head 10.9705 0.143271 0.810258
rclavicle 4.07509e-015 2.98177e-015
rhumerus -30.5928 9.36565 -86.5861
rradius 109.327
rwrist 8.43692
rhand -28.801 -23.4249
rfingers 7.12502
rthumb -2.15955 -53.3937
lclavicle 4.07509e-015 2.98177e-015
lhumerus -40.4727 -18.7754 94.2205
lradius 118.107
lwrist 41.9479
lhand -28.9516 -15.4136
lfingers 7.12502
lthumb -2.30499 14.5537
rfemur -30.1526 -6.75711 20.2605
rtibia 43.2302
rfoot 17.5192 -10.7446
rtoes 20.6771
lfemur -32.9862 5.31757 -17.2607
ltibia 43.8505
lfoot 23.3591 -0.0252814
ltoes 4.36957
430
root 0.232948 21.1896 -10.9633 11.9039 1.93148 -0.405839
lowerback 9.17631 -0.426125 -2.82817
upperback 4.61183 -0.763109 1.8038
thorax -0.29439 -0.444024 3.52841
lowerneck -13.7865 0.161976 -1.68011
upperneck 27.0067 0.275311 1.35678
head 10.9862 0.117556 0.815689
rclavicle -1.03368e-014 9.93923e-016
rhumerus -31.0614 9.24648 -86.7821
rradius 109.067
rwrist 8.59824
rhand -28.9113 -23.5357
rfingers 7.12502
rthumb -2.26603 -53.5034
lclavicle -1.03368e-014 9.93923e-016
lhumerus -41.3467 -18.7599 94.8479
lradius 117.967
lwrist 42.1759
lhand -28.7381 -15.2684
lfingers 7.12502
lthumb -2.09879 14.7011
rfemur -30.8214 -6.67863 20.3652
rtibia 44.5636
rfoot 17.4147 -10.3207
rtoes 20.9445
lfemur -33.595 5.36167 -17.3908
ltibia 44.8311
lfoot 23.1257 0.0232649
ltoes 4.48253
431
root 0.22917 21.3454 -10.9177 11.5019 2.0014 -0.394074
lowerback 9.94117 -0.419574 -2.90977
upperback 4.80528 -0.777356 1.80355
thorax -0.509237 -0.45115 3.58633
lowerneck -13.9805 0.115916 -1.73179
upperneck 26.9388 0.228787 1.35177
head 11.0002 0.0912768 0.816758
rclavicle -6.4605e-015 3.97569e-015
rhumerus -31.46 9.13697 -86.9757
rradius 108.71
rwrist 8.73453
rhand -29.0248 -23.6677
rfingers 7.12502
rthumb -2.37563 -53.6342
lclavicle -6.4605e-015 3.97569e-015
lhumerus -42.1234 -18.7809 95.4515
lradius 117.706
lwrist 42.1951
lhand -28.4759 -15.0585
lfingers 7.12502
lthumb -1.84551 14.9132
rfemur -31.3899 -6.56834 20.4446
rtibia 45.8356
rfoot 17.2646 -9.81022
rtoes 21.0409
lfemur -34.1091 5.42894 -17.5233
ltibia 45.802
lfoot 22.8156 0.0804061
ltoes 4.50598
432
root 0.225508 21.4908 -10.8719 11.0638 2.05453 -0.381684
lowerback 10.731 -0.404134 -2.99565
upperback 5.01651 -0.781984 1.80394
thorax -0.717989 -0.453863 3.64717
lowerneck -14.1625 0.0686145 -1.7797
upperneck 26.8736 0.182226 1.33729
head 11.0128 0.0642202 0.813649
rclavicle -1.98785e-015 1.33186e-014
rhumerus -31.7907 9.03696 -87.1703
rradius 108.268
rwrist 8.83578
rhand -29.1309 -23.8036
rfingers 7.12502
rthumb -2.4781 -53.7689
lclavicle -1.98785e-015 1.33186e-014
lhumerus -42.8093 -18.8384 96.0341
lradius 117.336
lwrist 42.0154
lhand -28.193 -14.8295
lfingers 7.12502
lthumb -1.57231 15.1444
rfemur -31.8856 -6.4348 20.5032
rtibia 46.9871
rfoot 17.103 -9.25314
rtoes 21.0001
lfemur -34.5647 5.51339 -17.6576
ltibia 46.7271
lfoot 22.5101 0.146999
ltoes 4.51602
